<?xml version="1.0" encoding="UTF-8" standalone="no"?>
<!-- Created with Inkscape (http://www.inkscape.org/) -->

<svg
   xmlns:dc="http://purl.org/dc/elements/1.1/"
   xmlns:cc="http://creativecommons.org/ns#"
   xmlns:rdf="http://www.w3.org/1999/02/22-rdf-syntax-ns#"
   xmlns:svg="http://www.w3.org/2000/svg"
   xmlns="http://www.w3.org/2000/svg"
   xmlns:xlink="http://www.w3.org/1999/xlink"
   xmlns:sodipodi="http://sodipodi.sourceforge.net/DTD/sodipodi-0.dtd"
   xmlns:inkscape="http://www.inkscape.org/namespaces/inkscape"
   version="1.1"
   width="10cm"
   height="10cm"
   id="svg2455"
   inkscape:version="0.47 r22583"
   sodipodi:docname="Mag_map_shade.svg">
  <metadata
     id="metadata4569">
    <rdf:RDF>
      <cc:Work
         rdf:about="">
        <dc:format>image/svg+xml</dc:format>
        <dc:type
           rdf:resource="http://purl.org/dc/dcmitype/StillImage" />
        <dc:title>Mag-Map</dc:title>
      </cc:Work>
    </rdf:RDF>
  </metadata>
  <sodipodi:namedview
     pagecolor="#ffffff"
     bordercolor="#666666"
     borderopacity="1"
     objecttolerance="10"
     gridtolerance="10"
     guidetolerance="10"
     inkscape:pageopacity="0"
     inkscape:pageshadow="2"
     inkscape:window-width="1280"
     inkscape:window-height="725"
     id="namedview4567"
     showgrid="false"
     inkscape:zoom="1.3320888"
     inkscape:cx="182.13977"
     inkscape:cy="214.81715"
     inkscape:window-x="0"
     inkscape:window-y="25"
     inkscape:window-maximized="1"
     inkscape:current-layer="svg2455" />
  <title
     id="title4119">Mag-Map</title>
  <defs
     id="defs3">
    <inkscape:perspective
       sodipodi:type="inkscape:persp3d"
       inkscape:vp_x="0 : 177.16536 : 1"
       inkscape:vp_y="0 : 1000 : 0"
       inkscape:vp_z="354.33072 : 177.16536 : 1"
       inkscape:persp3d-origin="177.16536 : 118.11024 : 1"
       id="perspective4571" />
    <linearGradient
       id="linearGradient2419">
      <stop
         id="stop2420"
         style="stop-color: rgb(0, 0, 0); stop-opacity: 0.505155;"
         offset="0" />
      <stop
         id="stop2421"
         style="stop-color: rgb(0, 0, 0); stop-opacity: 0;"
         offset="1" />
    </linearGradient>
    <linearGradient
       x1="156.33752"
       y1="184.92068"
       x2="264.56921"
       y2="184.92068"
       id="linearGradient2422"
       xlink:href="#linearGradient2419"
       gradientUnits="userSpaceOnUse"
       gradientTransform="scale(1.19593, 0.836169)" />
    <linearGradient
       id="linearGradient2411">
      <stop
         id="stop2412"
         style="stop-color: rgb(255, 255, 255); stop-opacity: 1;"
         offset="0" />
      <stop
         id="stop2413"
         style="stop-color: rgb(255, 255, 255); stop-opacity: 0;"
         offset="1" />
    </linearGradient>
    <radialGradient
       cx="212.59842"
       cy="70.866119"
       r="35.433071"
       fx="212.59842"
       fy="70.866119"
       id="radialGradient2415"
       xlink:href="#linearGradient2411"
       gradientUnits="userSpaceOnUse" />
    <linearGradient
       x1="414.13153"
       y1="240.14357"
       x2="302.99097"
       y2="240.80186"
       id="linearGradient1779"
       xlink:href="#linearGradient1767"
       gradientUnits="userSpaceOnUse"
       gradientTransform="scale(0.689104, 1.45116)" />
    <linearGradient
       id="linearGradient1767">
      <stop
         id="stop1768"
         style="stop-color: rgb(63, 51, 24); stop-opacity: 1;"
         offset="0" />
      <stop
         id="stop1769"
         style="stop-color: rgb(129, 95, 14); stop-opacity: 1;"
         offset="1" />
    </linearGradient>
    <linearGradient
       x1="299.37338"
       y1="252.27031"
       x2="411.72696"
       y2="252.27031"
       id="linearGradient1778"
       xlink:href="#linearGradient1767"
       gradientUnits="userSpaceOnUse"
       gradientTransform="matrix(0.697599, 0, 0, 1.47183, 0, -11.8264)" />
    <linearGradient
       id="linearGradient1754">
      <stop
         id="stop1755"
         style="stop-color: rgb(116, 116, 116); stop-opacity: 1;"
         offset="0" />
      <stop
         id="stop1757"
         style="stop-color: rgb(190, 190, 190); stop-opacity: 1;"
         offset="0.5" />
      <stop
         id="stop1759"
         style="stop-color: rgb(213, 213, 213); stop-opacity: 1;"
         offset="0.625" />
      <stop
         id="stop1758"
         style="stop-color: rgb(129, 129, 129); stop-opacity: 1;"
         offset="0.75" />
      <stop
         id="stop1756"
         style="stop-color: rgb(195, 195, 195); stop-opacity: 1;"
         offset="1" />
    </linearGradient>
    <linearGradient
       x1="150.49463"
       y1="42.808048"
       x2="345.53265"
       y2="242.17987"
       id="linearGradient1777"
       xlink:href="#linearGradient1754"
       gradientUnits="userSpaceOnUse"
       gradientTransform="scale(1.00007, 0.999929)" />
    <pattern
       id="pattern2568"
       patternTransform="translate(190.49, 70.8434)"
       height="33.076172"
       width="28.945312"
       patternUnits="userSpaceOnUse">
      <text
         transform="translate(-190.49, -70.8434)"
         id="text2569"
         y="67.7497"
         x="189.699"
         style="font-style: normal; font-weight: normal; fill: rgb(0, 0, 0); fill-opacity: 1; stroke: none; stroke-width: 1pt; stroke-linecap: butt; stroke-linejoin: miter; stroke-opacity: 1; font-family: Bitstream Vera Sans;"
         xml:space="preserve"><tspan
           y="67.7497"
           x="189.699"
           id="tspan2570"
           sodipodi:role="line" /><tspan
           y="79.7497"
           x="189.699"
           id="tspan2576"
           sodipodi:role="line">0010</tspan><tspan
           y="91.7497"
           x="189.699"
           id="tspan2578"
           sodipodi:role="line">0100</tspan><tspan
           y="103.75"
           x="189.699"
           id="tspan2580"
           sodipodi:role="line">0111</tspan><tspan
           y="115.75"
           x="189.699"
           id="tspan2582"
           sodipodi:role="line" /></text>
    </pattern>
    <pattern
       id="pattern2606"
       patternTransform="translate(183.767, 59.4684)"
       height="37.876175"
       width="32.232422"
       patternUnits="userSpaceOnUse">
      <text
         sodipodi:linespacing="120%"
         transform="translate(-173.586, -58.8434)"
         id="text2607"
         y="67.7497"
         x="189.699"
         style="font-style: normal; font-weight: bold; fill: rgb(0, 0, 0); fill-opacity: 1; stroke: none; stroke-width: 1pt; stroke-linecap: butt; stroke-linejoin: miter; stroke-opacity: 1; font-family: Bitstream Vera Sans; font-stretch: normal; font-variant: normal; text-anchor: middle;"
         xml:space="preserve"><tspan
           id="tspan2608"
           sodipodi:role="line"
           y="67.7497"
           x="189.699">0010</tspan><tspan
           id="tspan2610"
           sodipodi:role="line"
           y="82.1497"
           x="189.699">0100</tspan><tspan
           id="tspan2612"
           sodipodi:role="line"
           y="96.5497"
           x="189.699">0111</tspan></text>
    </pattern>
    <pattern
       id="pattern2623"
       patternTransform="translate(183.767, 59.4684)"
       height="28.276169"
       width="32.232422"
       patternUnits="userSpaceOnUse">
      <text
         sodipodi:linespacing="80%"
         transform="translate(-173.586, -58.8434)"
         id="text2624"
         y="67.7497"
         x="189.699"
         style="font-style: normal; font-variant: normal; font-weight: bold; font-stretch: normal; fill: rgb(0, 0, 0); fill-opacity: 1; stroke: none; stroke-width: 1pt; stroke-linecap: butt; stroke-linejoin: miter; stroke-opacity: 1; font-family: Bitstream Vera Sans; text-anchor: middle;"
         xml:space="preserve"><tspan
           id="tspan2625"
           sodipodi:role="line"
           y="67.7497"
           x="189.699">0010</tspan><tspan
           id="tspan2627"
           sodipodi:role="line"
           y="77.3497"
           x="189.699">0100</tspan><tspan
           id="tspan2629"
           sodipodi:role="line"
           y="86.9497"
           x="189.699">0111</tspan></text>
    </pattern>
    <pattern
       id="pattern2639"
       patternTransform="translate(183.767, 59.4684)"
       height="25.876175"
       width="32.232422"
       patternUnits="userSpaceOnUse">
      <text
         sodipodi:linespacing="70%"
         transform="translate(-173.586, -58.8434)"
         id="text2640"
         y="67.7497"
         x="189.699"
         style="font-style: normal; font-variant: normal; font-weight: bold; font-stretch: normal; fill: rgb(0, 0, 0); fill-opacity: 1; stroke: none; stroke-width: 1pt; stroke-linecap: butt; stroke-linejoin: miter; stroke-opacity: 1; font-family: Bitstream Vera Sans; text-anchor: middle;"
         xml:space="preserve"><tspan
           id="tspan2641"
           sodipodi:role="line"
           y="67.7497"
           x="189.699">0010</tspan><tspan
           id="tspan2643"
           sodipodi:role="line"
           y="76.1497"
           x="189.699">0100</tspan><tspan
           id="tspan2645"
           sodipodi:role="line"
           y="84.5497"
           x="189.699">0111</tspan></text>
    </pattern>
    <pattern
       id="pattern2692"
       patternTransform="translate(151.54, 41.6559)"
       height="77.628510"
       width="96.697266"
       patternUnits="userSpaceOnUse">
      <text
         sodipodi:linespacing="70%"
         transform="translate(-141.359, -41.0309)"
         id="text2693"
         y="67.7497"
         x="189.699"
         style="font-style: normal; font-variant: normal; font-weight: bold; font-stretch: normal; fill: rgb(0, 0, 0); fill-opacity: 1; stroke: none; stroke-width: 1pt; stroke-linecap: butt; stroke-linejoin: miter; stroke-opacity: 1; font-family: Bitstream Vera Sans; text-anchor: middle;"
         xml:space="preserve"><tspan
           id="tspan2694"
           sodipodi:role="line"
           y="67.7497"
           x="189.699">0010</tspan><tspan
           id="tspan2696"
           sodipodi:role="line"
           y="92.9497"
           x="189.699">0100</tspan><tspan
           id="tspan2698"
           sodipodi:role="line"
           y="118.15"
           x="189.699">0111</tspan></text>
    </pattern>
    <inkscape:perspective
       id="perspective4456"
       inkscape:persp3d-origin="0.5 : 0.33333333 : 1"
       inkscape:vp_z="1 : 0.5 : 1"
       inkscape:vp_y="0 : 1000 : 0"
       inkscape:vp_x="0 : 0.5 : 1"
       sodipodi:type="inkscape:persp3d" />
    <inkscape:perspective
       id="perspective4602"
       inkscape:persp3d-origin="0.5 : 0.33333333 : 1"
       inkscape:vp_z="1 : 0.5 : 1"
       inkscape:vp_y="0 : 1000 : 0"
       inkscape:vp_x="0 : 0.5 : 1"
       sodipodi:type="inkscape:persp3d" />
    <linearGradient
       x1="150.49463"
       y1="42.808048"
       x2="345.53265"
       y2="242.17987"
       id="linearGradient1777-2"
       xlink:href="#linearGradient1754-7"
       gradientUnits="userSpaceOnUse"
       gradientTransform="scale(1.00007,0.999929)" />
    <linearGradient
       id="linearGradient1754-7">
      <stop
         id="stop1755-6"
         style="stop-color: rgb(116, 116, 116); stop-opacity: 1;"
         offset="0" />
      <stop
         id="stop1757-5"
         style="stop-color: rgb(190, 190, 190); stop-opacity: 1;"
         offset="0.5" />
      <stop
         id="stop1759-8"
         style="stop-color: rgb(213, 213, 213); stop-opacity: 1;"
         offset="0.625" />
      <stop
         id="stop1758-1"
         style="stop-color: rgb(129, 129, 129); stop-opacity: 1;"
         offset="0.75" />
      <stop
         id="stop1756-3"
         style="stop-color: rgb(195, 195, 195); stop-opacity: 1;"
         offset="1" />
    </linearGradient>
    <linearGradient
       y2="242.17987"
       x2="345.53265"
       y1="42.808048"
       x1="150.49463"
       gradientTransform="matrix(0.7071565,0.7071565,-0.7070568,0.7070568,40.712157,-166.18841)"
       gradientUnits="userSpaceOnUse"
       id="linearGradient4614"
       xlink:href="#linearGradient1754-7"
       inkscape:collect="always" />
    <clipPath
       clipPathUnits="userSpaceOnUse"
       id="clipPath4692">
      <path
         d="m 299.40047,57.08479 c 34.57587,34.575863 34.59796,90.69256 0.0221,125.26842 -34.57586,34.57587 -90.71466,34.57587 -125.29052,0 -34.57587,-34.57585 -34.57586,-90.714657 0,-125.29052 34.57585,-34.57587 90.69256,-34.553767 125.26842,0.0221 z"
         id="path4694"
         style="fill:#000000;fill-opacity:0.65086209;stroke:#000000;stroke-width:1;stroke-linecap:butt;stroke-linejoin:miter;stroke-miterlimit:4;stroke-opacity:1;stroke-dasharray:none;display:block"
         sodipodi:nodetypes="csssc" />
    </clipPath>
  </defs>
  <g
     id="layer4"
     style="display: block;">
    <g
       id="g3754">
      <path
         d="M 17.61491,18.292406 88.582677,35.433051 159.44882,17.716515 230.31496,35.433051 301.1811,17.716515 318.89764,88.582657 301.1811,159.4488 318.89764,230.31494 301.1811,301.18108 230.31496,318.89762 159.44882,301.18108 88.582677,318.89762 17.716535,301.18108 35.433071,230.31494 17.716535,159.4488 35.433071,88.582657 17.61491,18.292406 z"
         id="path2522"
         style="fill: rgb(255, 255, 255); fill-opacity: 1; fill-rule: evenodd; stroke: rgb(0, 0, 0); stroke-width: 6.25; stroke-linecap: butt; stroke-linejoin: miter; stroke-miterlimit: 4; stroke-opacity: 1;" />
      <path
         d="M 19.6474,302.16346 35.433071,230.31494 17.716535,159.4488 35.433071,88.582657 17.716535,17.716515 88.582677,35.433051 159.44882,17.716515 230.31496,35.433051 301.1811,17.716515 318.89764,88.582657 301.1811,159.4488 318.89764,230.31494 301.1811,301.18108 230.31496,318.89762 159.44882,301.18108 88.582677,318.89762 19.6474,302.16346 z"
         id="path1278"
         style="fill: rgb(227, 255, 197); fill-opacity: 1; fill-rule: evenodd; stroke: rgb(0, 0, 0); stroke-width: 0.25pt; stroke-linecap: butt; stroke-linejoin: miter; stroke-opacity: 1;" />
      <path
         d="m 194.88189,141.73226 c 0,-2.30348 0,-4.60697 0,-6.91045 0,-9.9373 -1.75844,-10.80608 -11.28033,-10.80608 -14.71657,0 2.63407,17.71653 -15.58242,17.71653 -14.82703,0 12.76403,-34.66176 -54.87722,6.63948 -13.554632,8.27636 -6.07952,-6.63948 2.03249,-6.63948 12.29297,0 12.26577,-17.71653 0.6775,-17.71653 -3.84847,0 8.16384,-4.31536 8.16384,-8.16382 0,-7.7907 28.90582,-16.937416 10.80606,-16.937416 -7.28451,0 -10.80606,13.232566 -10.80606,-4.064979 0,-8.114108 16.55681,-15.950906 0,-17.61491 -2.11219,-0.21228 0,-4.245656 0,-6.368483 0,-3.624609 -14.49844,0 -10.87383,0 9.94773,0 10.87383,-1.698577 10.87383,-11.246427 0,-5.443473 -29.132593,-13.77462 -10.87383,-15.58242 46.12604,-4.566939 12.59477,-26.32076 46.3069,-26.32076 11.33657,0 -17.71654,17.694179 -17.71654,29.030746 0,15.452644 17.71654,-3.402759 17.71654,14.904924 0,19.150103 27.26765,16.937413 45.83263,16.937413 2.43899,0 4.87798,0 7.31698,0 5.19414,0 0,-10.38828 0,-15.58242 0,-14.425959 46.12091,-23.723476 42.14027,-9.857592 -1.83619,6.396028 -17.33541,7.064172 -24.42374,9.180095 -12.72176,3.797548 39.94853,54.199719 9.51881,54.199719 -15.31872,0 -5.45973,-10.23021 -19.6474,-10.23021 -8.00013,0 27.84513,17.32179 27.84513,35.43307 0,10.99808 -24.69128,-6.8367 -35.43307,-8.94294 -4.52732,-0.88771 -6.09094,-8.77359 -10.70446,-8.77359 -22.0876,0 10.70446,30.54942 10.70446,35.43307 0,2.30348 4.60696,0 6.91045,0 5.23125,0 -24.62699,7.68255 -24.62699,-9.72207 0,-2.66482 0,-5.32964 0,-7.99447 z"
         id="path2682"
         style="fill: rgb(145, 213, 93); fill-opacity: 1; fill-rule: evenodd; stroke: none;" />
      <path
         d="m 159.44882,141.73226 c 11.88325,0.20054 17.71653,1.92831 17.71653,-10.97543 0,-30.976151 28.1161,-31.950459 28.1161,-6.7411 0,4.35009 7.31698,6.45599 7.31698,10.80608 0,15.15593 3.93187,18.29241 -10.70446,18.29241 -2.33736,0 -4.67472,0 -7.01208,0 -3.6058,0 10.57693,-26.19603 -9.24784,-11.38196 -7.31055,5.46281 -17.21588,6.31009 -26.18523,7.99447 -7.61008,1.42913 -17.71654,3.62482 -17.71654,-7.99447 0,-10.53144 -17.71653,-41.2346 -17.71653,-26.55785 0,6.08893 24.63689,15.6021 25.71098,26.55785 0.3162,3.22524 6.48139,0 9.72209,0 z"
         id="path1901"
         style="fill: rgb(114, 172, 255); fill-opacity: 1; fill-rule: evenodd; stroke: none;" />
      <path
         d="m 106.36696,194.44151 8.12995,-17.27618 -0.67749,17.71654 10.19633,-10.60281 17.71653,-7.11373 -9.62046,17.71654 9.62046,-6.53783 8.67195,6.53783 9.04459,0 -11.07708,17.71654 -6.63946,8.26546 -8.94296,-8.26546 -8.77357,8.26546 0,9.45107 -17.71654,0 17.71654,-17.71653 -17.71654,0 -6.707219,-17.71654 6.774969,-0.44036 z"
         id="path2680"
         style="fill: rgb(153, 153, 153); fill-opacity: 1; fill-rule: evenodd; stroke: none;" />
      <path
         d="m 63.007178,31.842337 -9.857572,21.307249 17.716536,8.502599 -7.182658,34.082984 -10.533878,17.406751 0,17.61491 35.433071,19.6474 -17.716535,16.93741 3.676236,6.43024 16.161205,10.92964 15.595627,-7.53619 17.71654,17.71654 17.71653,42.24192 -17.71653,46.34076 8.09607,0 1.355,24.11888"
         id="path2683"
         style="fill: none; stroke: rgb(255, 0, 0); stroke-width: 2.5; stroke-linecap: butt; stroke-linejoin: miter; stroke-miterlimit: 4; stroke-opacity: 1;" />
      <path
         d="m 35.22982,302.84095 17.919786,-19.3764 17.716536,17.71653 35.433068,-17.71653 0,-17.71654 57.24881,18.4164 31.33387,-0.69986 0,-17.71654 -17.71654,-17.71653 17.71654,-35.43307 17.71654,-17.71654 17.71653,17.71654 0,17.71653 13.75752,2.40369 23.65506,-10.92963 33.45356,-9.19059 11.1448,-10.70444"
         id="path1900"
         style="fill: none; stroke: rgb(255, 0, 0); stroke-width: 2.5; stroke-linecap: butt; stroke-linejoin: miter; stroke-miterlimit: 4; stroke-opacity: 1; stroke-dasharray: none;" />
      <path
         d="m 27.303113,194.88187 c 11.514541,0.47152 16.036815,24.53974 25.846493,28.69199 10.662661,4.51329 12.89996,6.74108 28.149978,6.74108 12.399615,0 1.242297,-10.80606 16.937414,-10.80606 7.615902,0 25.778752,-12.90602 25.778752,-24.62701 0,-3.22494 26.55617,3.45648 28.42097,7.68959 3.1501,7.15075 17.61491,5.05744 17.61491,16.93742 0,14.99684 -11.59209,2.9635 -11.00273,15.01542 -2.80058,6.42423 -5.6874,13.50718 -17.31662,13.50718 -4.84277,0 -4.30831,10.04525 -8.94296,11.44969 -16.17073,4.90022 10.12156,7.43943 15.58242,12.87244 2.82306,2.80866 16.74797,5.06478 16.74797,5.06478 0,0 13.74675,-3.36154 22.54683,-5.06478 19.13598,-3.70374 13.89757,-22.41045 16.48224,-35.06408 -3.05083,-9.76888 -0.89982,-15.161 -0.89982,-24.69112 0,-2.52724 16.26024,17.71653 16.93741,17.71653 7.22758,0 18.14182,-9.26999 18.96991,-17.71653 0.43551,-4.44225 8.87522,-5.5634 8.87522,-10.02695 0,-0.45166 0,-0.90332 0,-1.35499 0,-8.77557 3.06353,-19.30036 -1.08366,-28.20738 0.43529,-7.33502 4.36741,-13.56029 12.53333,-13.56029 7.71746,0 7.18747,-17.71654 14.90493,-17.71654 5.94424,0 0.63652,-12.40518 -2.03249,-17.71653 -4.26866,-8.49464 -15.51394,-17.71654 3.38748,-17.71654 5.49014,0 5.58623,-4.20865 8.13789,-8.95139 -0.41771,-5.034147 -2.54884,-8.765143 -7.46039,-8.765143 -7.22663,0 -14.45326,0 -21.67989,0 -4.25923,0 -7.87752,1.476023 -11.03997,2.105684 -41.08644,-6.445009 -21.6805,-19.822219 -38.41728,-19.822219 -3.60706,0 -10.39956,-11.417929 -10.39956,-17.716536 0,-7.270273 34.24746,13.662732 34.24746,-16.56477"
         id="path2679"
         style="fill: none; stroke: rgb(36, 62, 180); stroke-width: 1pt; stroke-linecap: butt; stroke-linejoin: miter; stroke-opacity: 1;" />
      <g
         id="g1922">
        <path
           d="m 17.716535,159.4488 c -2.179709,-8.96404 18.450489,0 27.675733,0 16.055156,0 -0.744559,17.71653 15.58242,17.71653 9.202663,0 18.405326,0 27.607989,0 1.605012,0 -4.794742,-17.71653 8.299328,-17.71653 7.785065,0 6.325225,-35.43307 16.259915,-35.43307 3.55859,0 3.75283,-21.6988 4.06498,-25.101236 1.65221,-18.009074 24.52538,-25.224593 24.52538,-52.84473 0,-9.451083 0,-12.127201 0,-21.578284"
           id="path1903"
           style="fill: none; stroke: rgb(130, 109, 53); stroke-width: 0.375; stroke-linecap: butt; stroke-linejoin: miter; stroke-miterlimit: 4; stroke-opacity: 1; stroke-dasharray: none;" />
        <path
           d="m 25.067372,141.73226 c 0,-11.9691 23.938211,0 35.907316,0 24.506532,0 12.142116,-6.2167 27.607989,-10.97543 13.435033,-4.13385 -15.933839,-24.45764 7.621831,-24.45764 3.019274,0 -4.077039,-17.716533 10.094702,-17.716533 14.3968,0 0,-28.793593 0,-43.190389 0,-3.319739 0,-6.639478 0,-9.959217"
           id="path1904"
           style="fill: none; stroke: rgb(130, 109, 53); stroke-width: 0.375; stroke-linecap: butt; stroke-linejoin: miter; stroke-miterlimit: 4; stroke-opacity: 1; stroke-dasharray: none;" />
        <path
           d="m 177.16535,17.716515 c 0,8.999419 0,17.998838 0,26.998256 0,18.554655 -17.71653,-1.23663 -17.71653,15.582421 0,10.810024 -0.37523,17.11971 -8.36709,21.002392 -6.39627,3.107494 -11.33526,20.047716 -16.93742,24.999606 -11.35798,10.03961 -16.93741,-2.26797 -16.93741,17.71654 0,4.25743 6.80885,6.54865 6.80885,10.80608 0,23.62236 -17.71654,15.64959 -17.71654,33.87483 0,10.95103 -17.716533,6.81419 -17.716533,26.18523 0,6.43778 -11.394591,6.47384 -17.716535,7.68959 -1.151692,0.22148 -3.96652,10.02695 -17.716536,10.02695 -0.353925,0 2.887564,-17.71654 -9.789828,-17.71654 -6.048539,0 -15.496707,-10.15282 -16.937413,-17.71654 -0.0087,-0.0459 -1.890003,0 -2.03249,0"
           id="path1905"
           style="fill: none; stroke: rgb(130, 109, 53); stroke-width: 0.375; stroke-linecap: butt; stroke-linejoin: miter; stroke-miterlimit: 4; stroke-opacity: 1; stroke-dasharray: none;" />
        <path
           d="m 35.433071,248.03148 c -1.600682,-8.4036 14.078536,17.71653 24.864121,17.71653 13.817978,0 19.203367,2.60352 28.285485,-6.94433 2.976494,-3.12913 8.810138,-7.66194 11.009314,-10.7722 7.102729,-10.0453 6.707219,27.6757 6.707219,27.70961 0,5.6269 11.97278,15.22286 17.71654,16.93741 8.82025,2.63291 20.12878,-0.83017 28.42097,-1.35499 2.3327,-0.14764 4.67473,0 7.0121,0 3.28586,0 0,6.57171 0,9.85757"
           id="path1906"
           style="fill: none; stroke: rgb(130, 109, 53); stroke-width: 0.375; stroke-linecap: butt; stroke-linejoin: miter; stroke-miterlimit: 4; stroke-opacity: 1; stroke-dasharray: none;" />
        <path
           d="m 167.6804,301.18108 c 6.88789,0 13.77576,0 15.92116,0 9.79425,0 18.26209,-7.55319 28.99687,-10.53507 2.30649,-0.64069 0,-4.78764 0,-7.18146 0,-6.63571 17.71653,-2.44274 17.71653,-9.07845 0,-33.27417 13.19356,-18.52847 35.43307,-35.26371 9.05027,-6.81033 15.20896,7.58632 17.71654,-17.6149 0.21355,-2.1461 15.55983,8.80745 17.71653,8.80745 14.2745,0 -4.26498,-28.33992 -8.5026,-41.9709 -1.34421,-4.3239 7.56593,-10.16499 8.5026,-11.17871"
           id="path1907"
           style="fill: none; stroke: rgb(130, 109, 53); stroke-width: 0.375; stroke-linecap: butt; stroke-linejoin: miter; stroke-miterlimit: 4; stroke-opacity: 1; stroke-dasharray: none;" />
        <path
           d="m 212.59843,312.3259 c -1.60661,-5.16791 55.63952,-46.57789 63.82016,-46.57789 11.06577,0 22.13155,0 33.19733,0"
           id="path1908"
           style="fill: none; stroke: rgb(130, 109, 53); stroke-width: 0.375; stroke-linecap: butt; stroke-linejoin: miter; stroke-miterlimit: 4; stroke-opacity: 1; stroke-dasharray: none;" />
      </g>
      <path
         d="M 87.397053,36.58481 158.10695,18.868279 177.0091,88.582656 106.29921,106.29919 87.397053,36.58481 z"
         id="rect2896"
         style="overflow: visible; marker: none; color: rgb(0, 0, 0); fill: rgb(231, 255, 195); fill-opacity: 0.392157; stroke: none; stroke-width: 1.4; visibility: visible; display: inline;" />
      <path
         d="m 88.108429,177.32158 70.709901,-17.71653 18.19077,70.7099 -70.70989,17.71653 -18.190781,-70.7099 z"
         id="rect2896-0"
         style="overflow: visible; marker: none; color: rgb(0, 0, 0); fill: rgb(231, 255, 195); fill-opacity: 0.392157; stroke: none; stroke-width: 1.4; visibility: visible; display: inline;" />
      <path
         d="M 17.716535,17.716515 87.397053,36.58481 106.29921,106.29919 35.907316,88.752046 17.716535,17.716515 z"
         id="rect2896-9"
         style="overflow: visible; marker: none; color: rgb(0, 0, 0); fill: rgb(83, 84, 0); fill-opacity: 0.176471; stroke: none; stroke-width: 1.4; visibility: visible; display: inline;" />
      <path
         d="m 159.29257,159.4488 71.0224,17.71653 17.71653,70.86615 -71.0224,-17.71653 -17.71653,-70.86615 z"
         id="rect2896-9-0"
         style="overflow: visible; marker: none; color: rgb(0, 0, 0); fill: rgb(83, 84, 0); fill-opacity: 0.176471; stroke: none; stroke-width: 1.4; visibility: visible; display: inline;" />
      <path
         d="M 229.28559,36.584811 299.99549,18.86828 318.89764,88.582657 248.0315,106.29919 229.28559,36.584811 z"
         id="rect2896-06"
         style="overflow: visible; marker: none; color: rgb(0, 0, 0); fill: rgb(231, 255, 195); fill-opacity: 0.392157; stroke: none; stroke-width: 1.4; visibility: visible; display: inline;" />
      <path
         d="m 230.31497,177.16533 70.23564,-17.56028 18.90215,69.71437 -70.70989,17.71654 -18.4279,-69.87063 z"
         id="rect2896-7"
         style="overflow: visible; marker: none; color: rgb(0, 0, 0); fill: rgb(231, 255, 195); fill-opacity: 0.392157; stroke: none; stroke-width: 1.4; visibility: visible; display: inline;" />
      <path
         d="M 17.716535,159.4488 88.582677,177.16533 106.29921,248.03148 35.433071,230.31494 17.716535,159.4488 z"
         id="rect2896-9-8"
         style="overflow: visible; marker: none; color: rgb(0, 0, 0); fill: rgb(83, 84, 0); fill-opacity: 0.176471; stroke: none; stroke-width: 1.4; visibility: visible; display: inline;" />
      <path
         d="M 158.10695,18.868279 229.12935,36.584816 248.0315,106.29919 177.0091,88.582656 158.10695,18.868279 z"
         id="rect2896-9-02"
         style="overflow: visible; marker: none; color: rgb(0, 0, 0); fill: rgb(83, 84, 0); fill-opacity: 0.176471; stroke: none; stroke-width: 1.4; visibility: visible; display: inline;" />
      <path
         d="M 35.907316,88.752046 106.29921,106.29919 88.582677,177.16533 17.716535,159.77444 35.907316,88.752046 z"
         id="rect2896-9-5"
         style="overflow: visible; marker: none; color: rgb(0, 0, 0); fill: rgb(83, 84, 0); fill-opacity: 0.352941; stroke: none; stroke-width: 1.4; visibility: visible; display: inline;" />
      <path
         d="M 35.433071,230.31494 106.29921,248.03148 88.582677,318.89762 17.716535,301.18108 35.433071,230.31494 z"
         id="rect2896-9-5-1"
         style="overflow: visible; marker: none; color: rgb(0, 0, 0); fill: rgb(83, 84, 0); fill-opacity: 0.352941; stroke: none; stroke-width: 1.4; visibility: visible; display: inline;" />
      <path
         d="m 177.0091,230.31495 71.0224,17.71653 -17.8728,70.86615 -70.86614,-17.71654 17.71654,-70.86614 z"
         id="rect2896-9-5-1-6"
         style="overflow: visible; marker: none; color: rgb(0, 0, 0); fill: rgb(83, 84, 0); fill-opacity: 0.352941; stroke: none; stroke-width: 1.4; visibility: visible; display: inline;" />
      <path
         d="m 177.16535,88.582657 70.86615,17.716533 -17.71653,70.86614 -71.0224,-17.71653 17.87278,-70.866143 z"
         id="rect2896-9-5-1-4"
         style="overflow: visible; marker: none; color: rgb(0, 0, 0); fill: rgb(83, 84, 0); fill-opacity: 0.352941; stroke: none; stroke-width: 1.4; visibility: visible; display: inline;" />
      <g
         id="g2671">
        <path
           d="M 35.907316,88.752046 106.29921,106.29919 177.16535,88.582657 248.0315,106.29919 318.89764,88.582657"
           id="path2523"
           style="opacity: 0.329268; fill: none; stroke: rgb(0, 0, 0); stroke-width: 1.25; stroke-linecap: butt; stroke-linejoin: miter; stroke-miterlimit: 4; stroke-opacity: 1; stroke-dasharray: none; stroke-dashoffset: 0pt;" />
        <path
           d="m 87.397053,36.584813 18.902157,69.714377 -17.716533,70.86614 17.716533,70.86615 -17.716533,70.86614"
           id="path2524"
           style="opacity: 0.329268; fill: none; stroke: rgb(0, 0, 0); stroke-width: 1.25; stroke-linecap: butt; stroke-linejoin: miter; stroke-miterlimit: 4; stroke-opacity: 1; stroke-dasharray: none; stroke-dashoffset: 0pt;" />
        <path
           d="m 158.10695,18.868282 18.90215,69.714377 -17.71653,70.866141 17.71653,70.86615 -17.71653,70.86614"
           id="path2525"
           style="opacity: 0.329268; fill: none; stroke: rgb(0, 0, 0); stroke-width: 1.25; stroke-linecap: butt; stroke-linejoin: miter; stroke-miterlimit: 4; stroke-opacity: 1; stroke-dasharray: none; stroke-dashoffset: 0pt;" />
        <path
           d="m 229.12935,36.584816 18.90215,69.714374 -17.71653,70.86614 17.71653,70.86615 -17.71653,70.86614"
           id="path2526"
           style="opacity: 0.329268; fill: none; stroke: rgb(0, 0, 0); stroke-width: 1.25; stroke-linecap: butt; stroke-linejoin: miter; stroke-miterlimit: 4; stroke-opacity: 1; stroke-dasharray: none; stroke-dashoffset: 0pt;" />
        <path
           d="m 17.716535,159.77444 70.391894,17.54714 70.866141,-17.71653 71.3404,17.56028 70.39189,-17.56028"
           id="path2527"
           style="opacity: 0.329268; fill: none; stroke: rgb(0, 0, 0); stroke-width: 1.25; stroke-linecap: butt; stroke-linejoin: miter; stroke-miterlimit: 4; stroke-opacity: 1; stroke-dasharray: none; stroke-dashoffset: 0pt;" />
        <path
           d="m 35.433071,230.31494 70.391889,17.54714 71.18414,-17.54713 71.0224,17.71653 70.3919,-17.88593"
           id="path2528"
           style="opacity: 0.329268; fill: none; stroke: rgb(0, 0, 0); stroke-width: 1.25; stroke-linecap: butt; stroke-linejoin: miter; stroke-miterlimit: 4; stroke-opacity: 1; stroke-dasharray: none; stroke-dashoffset: 0pt;" />
        <path
           d="M 17.61491,18.292406 88.582677,35.433051 159.44882,17.716515 230.31496,35.433051 301.1811,17.716515 318.89764,88.582657 301.1811,159.4488 318.89764,230.31494 301.1811,301.18108 230.31496,318.89762 159.44882,301.18108 88.582677,318.89762 17.716535,301.18108 35.433071,230.31494 17.716535,159.4488 35.433071,88.582657 17.61491,18.292406 z"
           id="path2670"
           style="fill: none; stroke: rgb(0, 0, 0); stroke-width: 6.25; stroke-linecap: butt; stroke-linejoin: miter; stroke-miterlimit: 4; stroke-opacity: 1;" />
      </g>
    </g>
  </g>
  <text
     xml:space="preserve"
     style="font-size:37.60076141px;font-style:normal;font-variant:normal;font-weight:bold;font-stretch:normal;text-align:start;line-height:80.00000119%;writing-mode:lr-tb;text-anchor:start;opacity:0.5;fill:#000000;fill-opacity:1;stroke:none;display:block;font-family:Sans;-inkscape-font-specification:Sans Bold"
     x="133.3914"
     y="57.085167"
     id="text4404"
     sodipodi:linespacing="80.000001%"
     clip-path="url(#clipPath4692)"><tspan
       sodipodi:role="line"
       x="133.3914"
       y="57.085167"
       id="tspan4410">00100010</tspan><tspan
       sodipodi:role="line"
       x="133.3914"
       y="87.165779"
       id="tspan4417">01000100</tspan><tspan
       sodipodi:role="line"
       x="133.3914"
       y="117.24638"
       id="tspan4419">01110111</tspan><tspan
       sodipodi:role="line"
       x="133.3914"
       y="147.327"
       id="tspan4425">00100010</tspan><tspan
       sodipodi:role="line"
       x="133.3914"
       y="177.40761"
       id="tspan4421">01000100</tspan><tspan
       sodipodi:role="line"
       x="133.3914"
       y="207.48822"
       id="tspan4423">01110111</tspan></text>
  <g
     id="layer1"
     style="display: block;">
    <g
       id="g2489"
       style="display: block;">
      <g
         transform="matrix(0.707107, 0.707107, -0.707107, 0.707107, 161.603, -155.887)"
         id="g1774">
        <path
           d="m 248.03125,35.4375 c -58.67716,0 -106.3125,47.604086 -106.3125,106.28125 0,52.62685 38.35814,96.25709 88.59375,104.71875 l 0,37.03125 35.4375,0 0,-37.03125 c 50.23562,-8.46166 88.59377,-52.0919 88.59375,-104.71875 0,-58.677164 -47.63534,-106.28125 -106.3125,-106.28125 z m 0,17.71875 c 48.89764,0 88.59375,39.664861 88.59375,88.5625 10e-6,48.89764 -39.69611,88.59375 -88.59375,88.59375 -48.89764,1e-5 -88.59375,-39.69611 -88.59375,-88.59375 -1e-5,-48.897639 39.69611,-88.5625 88.59375,-88.5625 z"
           id="path1736"
           style="fill: url(#linearGradient1777) rgb(0, 0, 0); fill-opacity: 1; stroke: rgb(0, 0, 0); stroke-width: 6.25; stroke-linecap: butt; stroke-linejoin: miter; stroke-miterlimit: 4; stroke-opacity: 1;" />
        <rect
           width="70.866142"
           height="157.6528"
           rx="20"
           ry="20"
           x="212.59842"
           y="280.64615"
           id="rect1762"
           style="fill: url(#linearGradient1778) rgb(0, 0, 0); fill-opacity: 1; stroke: url(#linearGradient1779) rgb(0, 0, 0); stroke-width: 7.61231; stroke-linecap: butt; stroke-linejoin: round; stroke-miterlimit: 4; stroke-opacity: 1;" />
      </g>
      <path
         d="m 248.03149,70.866119 a 35.433071,35.433071 0 1 1 -70.86614,0 35.433071,35.433071 0 1 1 70.86614,0 z"
         transform="matrix(0.933079, 0, 0, 0.933079, 15.9212, 6.43622)"
         id="path2410"
         style="fill: url(#radialGradient2415) rgb(0, 0, 0); fill-opacity: 1; stroke: none;" />
      <path
         d="m 315.0625,109.375 c -15.36547,42.0745 -55.62842,72.1875 -103,72.1875 -8.64475,0 -17.02349,-1.10746 -25.09375,-3 13.75135,13.16391 32.34998,21.3125 52.875,21.3125 42.25952,0 76.56251,-34.30298 76.5625,-76.5625 0,-4.76122 -0.51069,-9.41608 -1.34375,-13.9375 z"
         id="path2416"
         style="fill: url(#linearGradient2422) rgb(0, 0, 0); fill-opacity: 1; stroke: none;" />
    </g>
  </g>
</svg>
